inDegrees=yes
name=ik_Xsens_quaternion
DataType=double
version=3
OpenSimVersion=4.4-2022-07-23-0e9fedc
endheader
time	pelvis_tilt	pelvis_list	pelvis_rotation	pelvis_tx	pelvis_ty	pelvis_tz	hip_flexion_r	hip_adduction_r	hip_rotation_r	knee_angle_r	knee_angle_r_beta	ankle_angle_r	subtalar_angle_r	mtp_angle_r	hip_flexion_l	hip_adduction_l	hip_rotation_l	knee_angle_l	knee_angle_l_beta	ankle_angle_l	subtalar_angle_l	mtp_angle_l	lumbar_extension	lumbar_bending	lumbar_rotation	arm_flex_r	arm_add_r	arm_rot_r	elbow_flex_r	pro_sup_r	wrist_flex_r	wrist_dev_r	arm_flex_l	arm_add_l	arm_rot_l	elbow_flex_l	pro_sup_l	wrist_flex_l	wrist_dev_l
24.98333333333333	0	0	0	0	0.93	0	18.82100067599547	-14.52799971939466	12.45299928862497	17.54700042428668	0.3062529312526446	7.216999994141599	0	0	46.54067166026716	-49.99768086797128	-39.97815898537721	0.006107537315359708	0.0001065966353414421	0	0	0	0	0	0	0	0	0	2.735511080954666e-39	0	0	0	53.61180327926858	73.85723417164148	-74.60179928556803	0.06279238727126236	44.99994450278223	0	0
25	0	0	0	0	0.93	0	18.82100067599547	-14.52799971939466	12.45299928862497	17.54700042428668	0.3062529312526446	7.216999994141599	0	0	46.04188537367209	-49.997707946334	-39.97958817133702	0.006123926783636529	0.0001068826855255238	0	0	0	0	0	0	0	0	0	5.142368148346603e-40	0	0	0	54.28458559620543	73.88902392627745	-75.38358474913088	0.06438075002136467	44.99994503440613	0	0
25.01666666666667	0	0	0	0	0.93	0	18.82100067599547	-14.52799971939466	12.45299928862497	17.54700042428668	0.3062529312526446	7.216999994141599	0	0	45.46000445262173	-49.99773222921901	-39.98076550605405	0.006122208576027105	0.0001068526971455066	0	0	0	0	0	0	0	0	0	7.112500207193344e-39	0	0	0	54.98449203711102	73.9037189979221	-76.12396914022723	0.06516474641193147	44.99994558885987	0	0
25.03333333333333	0	0	0	0	0.93	0	18.82100067599547	-14.52799971939466	12.45299928862497	17.54700042428668	0.3062529312526446	7.216999994141599	0	0	44.85758164087675	-49.99775567159636	-39.98171694017732	0.006112908217695797	0.00010669037527101	0	0	0	0	0	0	0	0	0	0	0	0	0	55.63814257359083	73.92093339630686	-76.79953732132402	0.06603561474542236	44.9999461306926	0	0
25.05	0	0	0	0	0.93	0	18.82100067599547	-14.52799971939466	12.45299928862497	17.54700042428668	0.3062529312526446	7.216999994141599	0	0	44.2224292630212	-49.99777594382998	-39.98253422222294	0.00610666568303944	0.0001065814224875867	0	0	0	0	0	0	0	0	0	0	0	0	0	56.26117057317489	73.93365783101494	-77.44852716070585	0.06691092142684571	44.99994629270362	0	0
25.06666666666667	-4.510670801364846e-27	2.475229109121431e-19	8.433187985930791e-27	6.310108657507768e-21	0.93	1.216428555311556e-21	18.82100067599547	-14.52799971939466	12.45299928862497	17.54700042428668	0.3062529312526446	7.216999994141599	-1.155300705716986e-19	2.323681661106969e-20	43.59262638228916	-49.99779494573944	-39.9832706627522	0.006096930280474856	0.0001064115076588276	1.921711834162322e-22	-2.779011801798938e-20	3.183800904146054e-17	-3.042951681160008e-27	-4.442181819476434e-20	9.750906212174042e-27	-8.914255781554713e-22	5.703950527529665e-21	-3.017430612955027e-21	1.979918584099892e-16	1.979919121914891e-16	8.127752241032774e-20	-3.998284737488087e-20	56.91129392096314	73.92914374055455	-78.12428840018141	0.0680004973801813	44.99994683349593	2.396515436709144e-19	5.634250494539233e-20
25.08333333333333	0	0	0	0	0.93	0	18.82100067599547	-14.52799971939466	12.45299928862497	17.54700042428668	0.3062529312526446	7.216999994141599	0	0	43.01384033924707	-49.99781158509474	-39.983948279913	0.006095462359492136	0.00010638588760452	0	0	0	0	0	0	0	0	0	0	0	0	0	57.46213875723927	73.93221980964255	-78.68496327300934	0.0698221794283886	44.99994737014687	0	0
25.1	0	0	0	0	0.93	0	18.82100067599547	-14.52799971939466	12.45299928862497	17.54700042428668	0.3062529312526446	7.216999994141599	0	0	42.50203910867892	-49.99783006618541	-39.98456186802114	0.00609789657626493	0.0001064283727019125	0	0	0	0	0	0	0	0	0	0	0	0	0	57.98870396153821	73.9190207528526	-79.18151216295688	0.07061441579249297	44.99994787760861	0	0
25.11666666666667	0	0	0	0	0.93	0	18.82100067599547	-14.52799971939466	12.45299928862497	17.54700042428668	0.3062529312526446	7.216999994141599	0	0	42.04078749892766	-49.99784469953097	-39.98521406212871	0.006120885421528619	0.0001068296037429954	0	0	0	0	0	0	0	0	0	2.14513546915593e-39	0	0	0	58.54028360394519	73.89555607472249	-79.64172754635173	0.07151515044832957	44.99994834802545	0	0
25.13333333333333	0	0	0	0	0.93	0	18.82100067599547	-14.52799971939466	12.45299928862497	17.54700042428668	0.3062529312526446	7.216999994141599	0	0	41.58803411014426	-49.99785849635434	-39.98573069718	0.006151105887625601	0.0001073570503778751	0	0	0	0	0	0	0	0	0	1.743581510527505e-38	1.525977167077978e-39	0	0	59.08256625405794	73.87801265961187	-80.08187126871223	0.07124820858975327	44.99994880399256	0	0
25.15	0	0	0	0	0.93	0	18.82100067599547	-14.52799971939466	12.45299928862497	17.54700042428668	0.3062529312526446	7.216999994141599	0	0	41.18190418228785	-49.99787060306306	-39.98614516943973	0.006193275994918199	0.0001080930575960502	0	0	0	0	0	0	0	0	0	7.030635644567548e-39	3.053176487469108e-39	0	0	59.59196821676927	73.87593367368751	-80.51170135840026	0.07038008336380394	44.99994923122853	0	0
25.16666666666667	0	0	0	0	0.93	0	18.82100067599547	-14.52799971939466	12.45299928862497	17.54700042428668	0.3062529312526446	7.216999994141599	0	0	40.82863323308974	-49.99788214073898	-39.98651541720144	0.00624279646124275	0.0001089573527805366	0	0	0	0	0	0	0	0	0	5.196468484691252e-46	1.110207986185739e-39	0	0	60.05462476498801	73.86260789371721	-80.91893449358578	0.0708587555770417	44.99994968425491	0	0
25.18333333333333	6.278223795217071e-27	1.648501642552239e-16	-1.071196545073075e-26	-1.782899083928837e-18	0.93	-4.306729525532435e-22	18.82100067599547	-14.52799971939466	12.45299928862497	17.54700042428668	0.3062529312526446	7.216999994141599	-4.660239994679993e-20	1.500804051032723e-21	40.48711611297786	-49.99789147480924	-39.98689907957735	0.006287474216432071	0.0001097371267109902	4.678053575254958e-20	1.299014135972328e-20	-4.20143997516107e-20	-1.996813495324156e-26	-6.620559170088874e-24	-2.211487209089608e-27	-6.179823344661859e-22	3.801968550053958e-20	-1.767693475678394e-18	0	0	-4.197113446277805e-16	4.439976274840242e-18	60.52922724843267	73.88039059770294	-81.35318571445508	0.07071979357823729	44.99995016141985	1.937200862589812e-16	-5.827958015776958e-18
25.2	0	0	0	0	0.93	0	18.82100067599547	-14.52799971939466	12.45299928862497	17.54700042428668	0.3062529312526446	7.216999994141599	0	0	40.20620574761764	-49.99789979893475	-39.98723715758055	0.006327235306191798	0.0001104310886414784	0	0	0	0	0	0	0	0	0	0	0	0	0	60.95256017556864	73.90383077047072	-81.76695067647972	0.07124239814506192	44.99995030439816	0	0
25.21666666666667	0	0	0	0	0.93	0	18.82100067599547	-14.52799971939466	12.45299928862497	17.54700042428668	0.3062529312526446	7.216999994141599	0	0	40.01737823028512	-49.99790816829896	-39.98753732886455	0.006357798215979938	0.0001109645120462715	0	0	0	0	0	0	0	0	0	0	4.273470905459095e-40	0	0	61.39185440281972	73.92730549861076	-82.14518244010578	0.07062477890785812	44.9999504430824	0	0
25.23333333333333	0	0	0	0	0.93	0	18.82100067599547	-14.52799971939466	12.45299928862497	17.54700042428668	0.3062529312526446	7.216999994141599	0	0	39.86396065378784	-49.99791537472365	-39.98781243635934	0.006374068053271182	0.0001112484742757674	0	0	0	0	0	0	0	0	0	9.45206259204183e-40	0	0	0	61.84439860141398	73.93713817291992	-82.4918713867232	0.07064153684116803	44.99995059101699	0	0
25.25	0	0	0	0	0.93	0	18.82100067599547	-14.52799971939466	12.45299928862497	17.54700042428668	0.3062529312526446	7.216999994141599	0	0	39.73835417630819	-49.99792090802417	-39.98804948385289	0.006375843222475261	0.0001112794568231586	0	0	0	0	0	0	0	0	0	0	0	0	0	62.29782466090754	73.94592437528387	-82.78811894258723	0.0711125556172173	44.99995103805779	0	0
25.26666666666667	0	0	0	0	0.93	0	18.82100067599547	-14.52799971939466	12.45299928862497	17.54700042428668	0.3062529312526446	7.216999994141599	0	0	39.70257663308837	-49.99792656867454	-39.98824373757845	0.006368346662438833	0.0001111486171679495	0	0	0	0	0	0	0	0	0	0	0	0	0	62.72812631469616	73.95973370910112	-83.07616732105964	0.0707406106379727	44.99995119138973	0	0
25.28333333333333	0	0	0	0	0.93	0	18.82100067599547	-14.52799971939466	12.45299928862497	17.54700042428668	0.3062529312526446	7.216999994141599	0	0	39.71127255067769	-49.99793097479802	-39.98838815052501	0.006361762977984428	0.0001110337101973078	0	0	0	0	0	0	0	0	0	3.085963300740555e-39	0	0	0	63.10950073487483	74.00771944334052	-83.35768241933862	0.06923375905092968	44.99995132801376	0	0
25.3	0	0	0	0	0.93	0	18.82100067599547	-14.52799971939466	12.45299928862497	17.54700042428668	0.3062529312526446	7.216999994141599	0	0	39.69603369555608	-49.99793503717755	-39.98849157721104	0.006351148237432731	0.0001108484480254357	0	0	0	0	0	0	0	0	0	9.80084080126655e-47	1.023842367219612e-46	0	0	63.21520141046097	74.05515142155929	-83.38488458232548	0.06878870355460585	44.99995136221629	0	0
25.31666666666667	0	0	0	0	0.93	0	18.82100067599547	-14.52799971939466	12.45299928862497	17.54700042428668	0.3062529312526446	7.216999994141599	0	0	39.68237405657	-49.99793854951174	-39.98855851608756	0.006338762382320492	0.0001106322740730522	0	0	0	0	0	0	0	0	0	0	9.532836809555915e-41	0	0	63.85324800341088	74.09313598893308	-83.92381270644476	0.06762417865639188	44.99995151741078	0	0
25.33333333333333	0	0	0	0	0.93	0	18.82100067599547	-14.52799971939466	12.45299928862497	17.54700042428668	0.3062529312526446	7.216999994141599	0	0	39.67977599036249	-49.99794080985998	-39.98859428821374	0.006329204275189467	0.0001104654536333574	0	0	0	0	0	0	0	0	0	0	0	0	0	64.23124483328843	74.12823059290497	-84.18047798622662	0.06661505428310081	44.99995195913918	0	0
25.35	-5.722455398947621e-25	-6.449276906790866e-17	-9.690842749275629e-26	1.044952226733069e-18	0.93	-6.40087207714443e-19	18.82100067599547	-14.52799971939466	12.45299928862497	17.54700042428668	0.3062529312526446	7.216999994141599	-6.992432226132053e-18	2.22919967262761e-18	39.65346230789358	-49.99794268841919	-39.98860091678881	0.006317114099079796	0.0001102544402530977	1.750407219207883e-16	-4.614126259796255e-19	3.326185190419884e-16	1.623696175111548e-25	1.333455974946529e-16	2.181027737971603e-25	-6.289710498539924e-22	-2.914367755384149e-22	1.103039657128838e-15	2.075264242363622e-15	2.075264302401488e-15	6.163577507627045e-18	-3.56419930576782e-18	64.6133260165265	74.17658982644355	-84.39508260506285	0.06489889913955195	44.9999523642684	-2.207561511290836e-16	2.313347995769013e-18
25.36666666666667	0	0	0	0	0.93	0	18.82100067599547	-14.52799971939466	12.45299928862497	17.54700042428668	0.3062529312526446	7.216999994141599	0	0	39.66733964156909	-49.99794336775535	-39.98861005054838	0.006313885223611883	0.0001101980857450458	0	0	0	0	0	0	0	0	0	0	0	0	0	64.92752969093084	74.23396496886238	-84.50892140081251	0.06280984022680478	44.99995281772025	0	0
25.38333333333333	0	0	0	0	0.93	0	18.82100067599547	-14.52799971939466	12.45299928862497	17.54700042428668	0.3062529312526446	7.216999994141599	0	0	39.66245321701293	-49.99794358701586	-39.98861143033741	0.006313201858482175	0.0001101861587735391	0	0	0	0	0	0	0	0	0	0	0	0	0	65.23788048211154	74.29706381647557	-84.62028393539767	0.06019923089445921	44.99995323772325	0	0
